#!OML:ASF X:\für Bonn\!DataBase\2005_08_12_Daniel\c3d\Daniel.ASF
:FULLY-SPECIFIED
:DEGREES
188
root -0.467517 13.6921 1.39773 178.312 -8.56692 -187.581
lowerback 79.313 -8.71132 19.0871
upperback 9.63601 -3.81261 -2.21415
thorax -8.74507 -4.77394 -7.43726
lowerneck 3.8883 -7.90868 -2.61445
upperneck 9.28803 -11.2565 0.979409
head 2.50352 -5.76969 0.606922
rclavicle -1.11319e-013 -8.90555e-014
rhumerus 215.721 -157.916 -259.334
rradius 4.6914
rwrist 28.9093
rhand -33.6188 15.0443
rfingers 7.12502
rthumb -6.81156 -14.8261
lclavicle -1.11319e-013 -8.90555e-014
lhumerus -24.1658 -12.6612 93.3123
lradius 44.9094
lwrist 7.07952
lhand -8.82243 -8.82568
lfingers 7.12502
lthumb 17.1174 20.4403
rfemur -57.1332 -6.3015 7.07075
rtibia 95.2558
rfoot -32.997 -4.71803
rtoes -20.8711
lfemur -57.027 0.645153 -28.4928
ltibia 92.6003
lfoot -30.3219 -16.1502
ltoes -0.532363
189
root -0.465829 13.7869 1.3961 178.2 -8.50575 -187.419
lowerback 78.9006 -8.51164 19.0091
upperback 9.76269 -3.76804 -2.18898
thorax -8.65489 -4.75233 -7.42541
lowerneck 3.9162 -7.82735 -2.56472
upperneck 9.287 -11.142 0.913771
head 2.4879 -5.71497 0.582018
rclavicle -4.45278e-014 -3.57812e-015
rhumerus 214.965 -158.045 -259.505
rradius 4.82933
rwrist 29.0066
rhand -32.9255 15.0199
rfingers 7.12502
rthumb -6.14232 -14.8711
lclavicle -4.45278e-014 -3.57812e-015
lhumerus -23.9598 -12.3843 93.2544
lradius 44.4553
lwrist 6.7393
lhand -8.8929 -8.81301
lfingers 7.12502
lthumb 17.0495 20.4588
rfemur -56.2454 -5.94607 7.26044
rtibia 94.1282
rfoot -32.8326 -4.8559
rtoes -20.7376
lfemur -56.2223 0.566836 -28.2756
ltibia 91.61
lfoot -30.0961 -15.9845
ltoes -0.632004
190
root -0.463998 13.8824 1.39423 178.092 -8.45145 -187.273
lowerback 78.476 -8.33738 18.932
upperback 9.88854 -3.75022 -2.19177
thorax -8.57224 -4.73729 -7.43604
lowerneck 3.8816 -7.74223 -2.48632
upperneck 9.3173 -11.0196 0.838652
head 2.49125 -5.65504 0.546024
rclavicle -3.18055e-015 -2.8625e-014
rhumerus 214.162 -158.167 -259.69
rradius 4.95877
rwrist 29.1469
rhand -32.255 15.0339
rfingers 7.12502
rthumb -5.49495 -14.8749
lclavicle -3.18055e-015 -2.8625e-014
lhumerus -23.7514 -12.1176 93.1706
lradius 43.9818
lwrist 6.45068
lhand -9.03648 -8.85837
lfingers 7.12502
lthumb 16.9113 20.4253
rfemur -55.3414 -5.62087 7.43398
rtibia 92.9738
rfoot -32.6228 -4.95693
rtoes -20.4255
lfemur -55.4151 0.456982 -28.0683
ltibia 90.6048
lfoot -29.8412 -15.847
ltoes -0.798332
191
root -0.462381 13.9781 1.39137 177.991 -8.40443 -187.093
lowerback 78.0129 -8.16846 18.8817
upperback 10.0202 -3.71836 -2.18011
thorax -8.47922 -4.71613 -7.44661
lowerneck 3.78499 -7.66356 -2.37255
upperneck 9.37922 -10.902 0.70719
head 2.51043 -5.59764 0.483259
rclavicle -2.22639e-014 6.59965e-014
rhumerus 213.356 -158.288 -259.852
rradius 5.06916
rwrist 29.3368
rhand -31.5615 15.0821
rfingers 7.12502
rthumb -4.82535 -14.8429
lclavicle -2.22639e-014 6.59965e-014
lhumerus -23.54 -11.8761 93.1018
lradius 43.5239
lwrist 6.15087
lhand -9.18825 -8.82683
lfingers 7.12502
lthumb 16.7652 20.4693
rfemur -54.4318 -5.3056 7.65132
rtibia 91.7991
rfoot -32.4293 -5.06243
rtoes -20.2608
lfemur -54.6153 0.346355 -27.8316
ltibia 89.5842
lfoot -29.5882 -15.6877
ltoes -0.953388
192
root -0.459575 14.0762 1.38731 177.894 -8.3411 -186.931
lowerback 77.5492 -7.97556 18.8038
upperback 10.1512 -3.67993 -2.17352
thorax -8.38964 -4.6915 -7.45687
lowerneck 3.63857 -7.58744 -2.28928
upperneck 9.44643 -10.7885 0.620972
head 2.54549 -5.5411 0.436867
rclavicle -3.81667e-014 -1.35174e-014
rhumerus 212.492 -158.392 -260.006
rradius 5.2099
rwrist 29.5038
rhand -30.8299 15.2312
rfingers 7.12502
rthumb -4.1189 -14.7087
lclavicle -3.81667e-014 -1.35174e-014
lhumerus -23.3268 -11.6341 93.0387
lradius 43.055
lwrist 5.87726
lhand -9.36814 -8.78663
lfingers 7.12502
lthumb 16.592 20.5241
rfemur -53.5255 -4.98936 7.85519
rtibia 90.6049
rfoot -32.216 -5.16993
rtoes -20.0255
lfemur -53.7975 0.247982 -27.6029
ltibia 88.5437
lfoot -29.3226 -15.5572
ltoes -1.03656
193
root -0.457119 14.1744 1.38328 177.774 -8.28082 -186.771
lowerback 77.1185 -7.81517 18.7165
upperback 10.2577 -3.67222 -2.18244
thorax -8.33026 -4.68081 -7.46492
lowerneck 3.47863 -7.48575 -2.20873
upperneck 9.54895 -10.6421 0.520231
head 2.59375 -5.46959 0.385454
rclavicle -8.26944e-014 -1.51076e-014
rhumerus 211.442 -158.531 -260.148
rradius 5.59822
rwrist 29.63
rhand -30.004 15.3157
rfingers 7.12502
rthumb -3.32128 -14.6382
lclavicle -8.26944e-014 -1.51076e-014
lhumerus -23.1305 -11.3013 92.9481
lradius 42.544
lwrist 5.51575
lhand -9.54709 -8.82921
lfingers 7.12502
lthumb 16.4197 20.4959
rfemur -52.5732 -4.68043 8.05544
rtibia 89.3719
rfoot -31.9864 -5.29806
rtoes -19.8135
lfemur -52.9335 0.135565 -27.3853
ltibia 87.4677
lfoot -29.0569 -15.382
ltoes -1.1885
194
root -0.453933 14.272 1.37833 177.671 -8.2159 -186.592
lowerback 76.6267 -7.6438 18.6554
upperback 10.3777 -3.63615 -2.18436
thorax -8.25315 -4.6547 -7.49018
lowerneck 3.27484 -7.40673 -2.14009
upperneck 9.68025 -10.5271 0.41303
head 2.66083 -5.41405 0.330692
rclavicle -3.81667e-014 -3.97569e-014
rhumerus 210.26 -158.596 -260.208
rradius 6.11599
rwrist 29.7627
rhand -29.0999 15.4459
rfingers 7.12502
rthumb -2.44824 -14.5198
lclavicle -3.81667e-014 -3.97569e-014
lhumerus -22.9554 -11.1079 92.8811
lradius 42.0752
lwrist 5.24405
lhand -9.81636 -8.78072
lfingers 7.12502
lthumb 16.1605 20.5656
rfemur -51.6392 -4.38991 8.2858
rtibia 88.1426
rfoot -31.7796 -5.39305
rtoes -19.6495
lfemur -52.1038 0.0473394 -27.1449
ltibia 86.4118
lfoot -28.7985 -15.2277
ltoes -1.42868
195
root -0.45111 14.3808 1.37333 177.571 -8.14415 -186.412
lowerback 76.1161 -7.47335 18.5812
upperback 10.5043 -3.61639 -2.18622
thorax -8.17236 -4.63585 -7.50444
lowerneck 3.06182 -7.30367 -2.12768
upperneck 9.79743 -10.3809 0.346609
head 2.73073 -5.34372 0.298132
rclavicle -9.54166e-015 -1.35174e-014
rhumerus 209.064 -158.705 -260.274
rradius 6.6453
rwrist 29.8168
rhand -28.1528 15.621
rfingers 7.12502
rthumb -1.5335 -14.3533
lclavicle -9.54166e-015 -1.35174e-014
lhumerus -22.7484 -10.767 92.8058
lradius 41.5641
lwrist 4.89237
lhand -10.0278 -8.78683
lfingers 7.12502
lthumb 15.9569 20.5759
rfemur -50.6333 -4.08747 8.52151
rtibia 86.8224
rfoot -31.5273 -5.50387
rtoes -19.3328
lfemur -51.1911 -0.0556002 -26.905
ltibia 85.2652
lfoot -28.5348 -15.0549
ltoes -1.50052
196
root -0.447144 14.467 1.3656 177.46 -8.09492 -186.233
lowerback 75.5803 -7.3216 18.5384
upperback 10.6421 -3.59598 -2.17936
thorax -8.07396 -4.61586 -7.52158
lowerneck 2.83908 -7.22117 -2.11421
upperneck 9.8916 -10.2588 0.25215
head 2.79359 -5.28589 0.256585
rclavicle 5.725e-014 9.54166e-015
rhumerus 207.838 -158.783 -260.303
rradius 7.18123
rwrist 29.8735
rhand -27.2186 15.804
rfingers 7.12502
rthumb -0.631231 -14.1748
lclavicle 5.725e-014 9.54166e-015
lhumerus -22.515 -10.4819 92.7518
lradius 41.0424
lwrist 4.59537
lhand -10.2677 -8.70684
lfingers 7.12502
lthumb 15.7259 20.6742
rfemur -49.7496 -3.82561 8.75123
rtibia 85.6457
rfoot -31.309 -5.59478
rtoes -19.1702
lfemur -50.3974 -0.168332 -26.6692
ltibia 84.2499
lfoot -28.2797 -14.868
ltoes -1.79718
197
root -0.443245 14.5653 1.35787 177.361 -8.02357 -186.056
lowerback 75.0271 -7.14688 18.4607
upperback 10.7683 -3.57021 -2.17538
thorax -7.99366 -4.59306 -7.53198
lowerneck 2.65843 -7.11871 -2.12788
upperneck 9.96395 -10.1127 0.204523
head 2.846 -5.21588 0.237024
rclavicle -1.90833e-014 1.90833e-014
rhumerus 206.563 -158.895 -260.334
rradius 7.72097
rwrist 29.9354
rhand -26.3104 16.0359
rfingers 7.12502
rthumb 0.245903 -13.9437
lclavicle -1.90833e-014 1.90833e-014
lhumerus -22.358 -10.1508 92.6788
lradius 40.5826
lwrist 4.24352
lhand -10.4253 -8.64728
lfingers 7.12502
lthumb 15.5741 20.7457
rfemur -48.7946 -3.5453 8.97969
rtibia 84.3495
rfoot -31.0651 -5.6893
rtoes -18.8836
lfemur -49.5471 -0.268545 -26.4292
ltibia 83.1412
lfoot -27.9931 -14.6943
ltoes -1.88672
198
root -0.439185 14.6641 1.34991 177.239 -7.95041 -185.873
lowerback 74.448 -6.97267 18.3956
upperback 10.9243 -3.55258 -2.17492
thorax -7.8787 -4.57284 -7.55093
lowerneck 2.49359 -7.02858 -2.06998
upperneck 9.99094 -9.97603 0.107585
head 2.87336 -5.14903 0.192564
rclavicle -5.24792e-014 -1.43125e-014
rhumerus 205.346 -159.013 -260.402
rradius 8.17916
rwrist 29.995
rhand -25.4729 16.2942
rfingers 7.12502
rthumb 1.05484 -13.6829
lclavicle -5.24792e-014 -1.43125e-014
lhumerus -22.1211 -9.84051 92.5825
lradius 40.0489
lwrist 3.97864
lhand -10.6282 -8.61818
lfingers 7.12502
lthumb 15.3787 20.7899
rfemur -47.8017 -3.26367 9.22432
rtibia 83.0471
rfoot -30.8127 -5.79024
rtoes -18.7164
lfemur -48.6547 -0.382363 -26.1815
ltibia 82.0207
lfoot -27.7118 -14.514
ltoes -2.11177
199
root -0.43534 14.7739 1.34138 177.125 -7.86705 -185.68
lowerback 73.8478 -6.77356 18.2894
upperback 11.0529 -3.52105 -2.15823
thorax -7.79759 -4.54879 -7.54052
lowerneck 2.44972 -6.91759 -2.08845
upperneck 9.98059 -9.81876 0.0517632
head 2.87303 -5.07491 0.179829
rclavicle -8.11041e-014 -8.90555e-014
rhumerus 203.978 -159.156 -260.383
rradius 8.73478
rwrist 30.0491
rhand -24.5919 16.6199
rfingers 7.12502
rthumb 1.90568 -13.3514
lclavicle -8.11041e-014 -8.90555e-014
lhumerus -21.9837 -9.4012 92.5073
lradius 39.5624
lwrist 3.59374
lhand -10.8012 -8.52974
lfingers 7.12502
lthumb 15.212 20.891
rfemur -46.7416 -3.00749 9.48529
rtibia 81.6405
rfoot -30.5336 -5.87742
rtoes -18.3537
lfemur -47.6917 -0.500304 -25.9314
ltibia 80.82
lfoot -27.4473 -14.2859
ltoes -2.2724
200
root -0.430189 14.8711 1.3319 177.026 -7.8011 -185.499
lowerback 73.1877 -6.56708 18.1679
upperback 11.2152 -3.50957 -2.12894
thorax -7.68293 -4.5329 -7.50549
lowerneck 2.40663 -6.80437 -2.09949
upperneck 9.90963 -9.65259 -0.0185332
head 2.85062 -4.99552 0.163268
rclavicle 2.06736e-014 3.18055e-015
rhumerus 202.667 -159.336 -260.381
rradius 9.26944
rwrist 30.1662
rhand -23.8055 16.9151
rfingers 7.12502
rthumb 2.6652 -13.048
lclavicle 2.06736e-014 3.18055e-015
lhumerus -21.7265 -8.87212 92.4164
lradius 39.0015
lwrist 3.16991
lhand -10.9469 -8.4719
lfingers 7.12502
lthumb 15.0716 20.9594
rfemur -45.7666 -2.7906 9.73598
rtibia 80.3003
rfoot -30.2392 -5.95491
rtoes -18.1051
lfemur -46.8185 -0.621518 -25.6837
ltibia 79.6702
lfoot -27.1377 -14.1092
ltoes -2.48856
